<svg width="25" height="25" viewBox="0 0 25 25" fill="none" xmlns="http://www.w3.org/2000/svg">
<path d="M1.475 3.92505H23.525C23.8625 3.92505 24.1525 4.04505 24.39 4.28505C24.6275 4.52505 24.75 4.81255 24.75 5.15005C24.75 5.48755 24.63 5.77755 24.39 6.01505C24.15 6.25505 23.8625 6.37505 23.525 6.37505H1.475C1.1375 6.37505 0.8475 6.25505 0.61 6.01505C0.37 5.77755 0.25 5.48755 0.25 5.15005C0.25 4.81255 0.37 4.52255 0.61 4.28505C0.85 4.04755 1.1375 3.92505 1.475 3.92505ZM1.475 18.625H23.525C23.8625 18.625 24.1525 18.745 24.39 18.985C24.63 19.225 24.75 19.5125 24.75 19.85C24.75 20.1875 24.63 20.4775 24.39 20.715C24.15 20.955 23.8625 21.075 23.525 21.075H1.475C1.1375 21.075 0.8475 20.955 0.61 20.715C0.37 20.4775 0.25 20.1875 0.25 19.85C0.25 19.5125 0.37 19.2225 0.61 18.985C0.8475 18.745 1.1375 18.625 1.475 18.625ZM1.475 11.275H23.525C23.8625 11.275 24.1525 11.395 24.39 11.635C24.6275 11.875 24.75 12.1625 24.75 12.5C24.75 12.8375 24.63 13.1275 24.39 13.365C24.15 13.605 23.8625 13.725 23.525 13.725H1.475C1.1375 13.725 0.8475 13.605 0.61 13.365C0.37 13.1275 0.25 12.8375 0.25 12.5C0.25 12.1625 0.37 11.8725 0.61 11.635C0.85 11.3975 1.1375 11.275 1.475 11.275Z" fill="black"/>
</svg>
