<svg width="23" height="10" viewBox="0 0 23 10" fill="none" xmlns="http://www.w3.org/2000/svg">
<path d="M0.967658 0.997L0.932373 8.9661C0.932912 9.0977 0.959373 9.228 1.01024 9.3493C1.06111 9.4706 1.13539 9.5807 1.22881 9.6732C1.41475 9.858 1.6657 9.9621 1.92756 9.9632L21.9372 9.9985C22.2008 9.9977 22.4536 9.8924 22.64 9.7056C22.8265 9.5188 22.9316 9.2657 22.9324 9.0015V0.997C22.9318 0.8654 22.9053 0.7352 22.8545 0.6139C22.8036 0.4925 22.7294 0.3825 22.6359 0.2899C22.45 0.1052 22.199 0.0011 21.9372 0H17.9423H5.95775H1.96285C1.69915 0.0008 1.44648 0.1061 1.26001 0.2929C1.07355 0.4797 0.968447 0.7329 0.967658 0.997ZM4.96253 2.0011V3.0052C4.96332 3.2694 5.06839 3.5225 5.25485 3.7094C5.44131 3.8962 5.69404 4.0015 5.95775 4.0022C6.08951 4.0028 6.22007 3.9772 6.34195 3.9269C6.46372 3.8766 6.57442 3.8027 6.66764 3.7094C6.76077 3.616 6.83464 3.5051 6.88474 3.383C6.93495 3.261 6.96051 3.1302 6.96001 2.9982V1.9941L8.95743 2.0011V4.9993C8.97679 5.2504 9.09008 5.4849 9.27454 5.656C9.459 5.8271 9.70116 5.9221 9.95259 5.9221C10.204 5.9221 10.4461 5.8271 10.6306 5.656C10.8151 5.4849 10.9284 5.2504 10.9478 4.9993V2.0011H12.9523L12.9452 2.9982C12.9452 3.2645 13.0508 3.5198 13.2387 3.7082C13.4267 3.8965 13.6816 4.0022 13.9474 4.0022C14.2132 4.0022 14.4682 3.8965 14.6561 3.7082C14.8441 3.5198 14.9497 3.2645 14.9497 2.9982L14.9426 2.0011L16.94 1.9941L16.9471 4.9993C16.9479 5.2635 17.053 5.5166 17.2395 5.7034C17.4259 5.8902 17.6787 5.9955 17.9423 5.9963C18.206 5.9955 18.4587 5.8902 18.6452 5.7034C18.8316 5.5166 18.9367 5.2635 18.9375 4.9993V2.0011L20.935 1.9941V8.0045H2.9651V1.9941L4.96253 2.0011Z" fill="#20BBED"/>
</svg>
