<svg width="18" height="18" viewBox="0 0 18 18" fill="none" xmlns="http://www.w3.org/2000/svg">
<path d="M0.695202 0.257223C0.474702 0.356403 0.254202 0.648544 0.204702 0.907564C0.122082 1.35954 0.0504422 1.27674 4.0297 5.26716L7.75552 8.99856L4.02412 12.7354C1.97392 14.7857 0.270762 16.5218 0.237642 16.5881C0.149442 16.7645 0.166002 17.1392 0.265182 17.3542C0.436002 17.7124 0.970602 17.9109 1.3675 17.762C1.45012 17.7289 3.20836 16.0313 5.27512 13.9865L9.02848 10.2717L12.7215 13.97C14.8436 16.092 16.4859 17.6958 16.5851 17.7399C17.3346 18.0652 18.0897 17.2604 17.7259 16.5328C17.6762 16.4336 15.9842 14.6974 13.9616 12.6747L10.2908 8.98758L13.9947 5.31684C17.9849 1.34856 17.8803 1.4697 17.7921 0.984783C17.693 0.450182 17.0261 0.130503 16.53 0.378542C16.4308 0.428043 14.7111 2.10924 12.705 4.10994L9.0508 7.75854L5.34694 4.05468C3.30754 2.02086 1.56046 0.317883 1.46128 0.268204C1.24636 0.163443 0.926682 0.158043 0.695202 0.257223Z" fill="black"/>
</svg>
